<?xml version="1.0" encoding="UTF-8" standalone="no"?>
<!-- Generator: Adobe Illustrator 12.0.0, SVG Export Plug-In . SVG Version: 6.00 Build 51448)  -->

<svg
   xmlns:dc="http://purl.org/dc/elements/1.1/"
   xmlns:cc="http://creativecommons.org/ns#"
   xmlns:rdf="http://www.w3.org/1999/02/22-rdf-syntax-ns#"
   xmlns:svg="http://www.w3.org/2000/svg"
   xmlns="http://www.w3.org/2000/svg"
   xmlns:sodipodi="http://sodipodi.sourceforge.net/DTD/sodipodi-0.dtd"
   xmlns:inkscape="http://www.inkscape.org/namespaces/inkscape"
   version="1.1"
   id="Ebene_1"
   width="594mm"
   height="420mm"
   viewBox="0 0 2245.0394 1587.4016"
   overflow="visible"
   enable-background="new 0 0 1418.324 511.236"
   xml:space="preserve"
   sodipodi:docname="192x64P25.svg"
   style="overflow:visible"
   inkscape:version="0.92.3 (2405546, 2018-03-11)"><metadata
   id="metadata245"><rdf:RDF><cc:Work
       rdf:about=""><dc:format>image/svg+xml</dc:format><dc:type
         rdf:resource="http://purl.org/dc/dcmitype/StillImage" /><dc:title></dc:title></cc:Work></rdf:RDF></metadata><defs
   id="defs243" /><sodipodi:namedview
   pagecolor="#ffffff"
   bordercolor="#666666"
   borderopacity="1"
   objecttolerance="10"
   gridtolerance="10"
   guidetolerance="10"
   inkscape:pageopacity="0"
   inkscape:pageshadow="2"
   inkscape:window-width="1639"
   inkscape:window-height="835"
   id="namedview241"
   showgrid="false"
   units="mm"
   inkscape:document-units="mm"
   inkscape:zoom="0.26792186"
   inkscape:cx="709.16199"
   inkscape:cy="703.50978"
   inkscape:window-x="0"
   inkscape:window-y="0"
   inkscape:window-maximized="0"
   inkscape:current-layer="Ebene_1" />
<g
   id="g238"
   transform="matrix(1.3323742,0,0,1.3310759,194.09984,466.49261)">
	<rect
   x="0.5"
   y="0.5"
   width="1417.323"
   height="510.23499"
   id="rect2"
   style="fill:#ffffff;stroke:#000000" />
	<rect
   x="524.909"
   y="198.925"
   width="368.50299"
   height="113.387"
   id="rect4"
   style="fill:#ffffff;stroke:#000000" />
	<rect
   x="71.365997"
   y="198.925"
   width="368.504"
   height="113.387"
   id="rect6"
   style="fill:#ffffff;stroke:#000000" />
	<rect
   x="978.45599"
   y="198.925"
   width="368.504"
   height="113.387"
   id="rect8"
   style="fill:#ffffff;stroke:#000000" />
	<circle
   cx="709.16199"
   cy="14.672"
   r="5.6690001"
   id="circle10"
   style="fill:#ffffff;stroke:#000000" />
	<circle
   cx="709.16199"
   cy="496.56201"
   r="5.6690001"
   id="circle12"
   style="fill:#ffffff;stroke:#000000" />
	<circle
   cx="1403.65"
   cy="14.672"
   r="5.6690001"
   id="circle14"
   style="fill:#ffffff;stroke:#000000" />
	<circle
   cx="14.673"
   cy="14.672"
   r="5.6690001"
   id="circle16"
   style="fill:#ffffff;stroke:#000000" />
	<circle
   cx="14.673"
   cy="496.56201"
   r="5.6690001"
   id="circle18"
   style="fill:#ffffff;stroke:#000000" />
	<circle
   cx="1403.65"
   cy="496.56201"
   r="5.6690001"
   id="circle20"
   style="fill:#ffffff;stroke:#000000" />
	<g
   id="g38">
		<g
   id="g28">
			<path
   d="m 123.856,449.778 c 0,3.133 2.536,5.668 5.669,5.668"
   id="path22"
   inkscape:connector-curvature="0"
   style="fill:none;stroke:#000000" />
			<path
   d="m 129.537,444.136 c -3.133,-0.008 -5.674,2.523 -5.68,5.658"
   id="path24"
   inkscape:connector-curvature="0"
   style="fill:none;stroke:#000000" />
			<line
   x1="129.513"
   y1="444.142"
   x2="140.85201"
   y2="444.142"
   id="line26"
   style="fill:none;stroke:#000000" />
		</g>
		<g
   id="g36">
			<path
   d="m 146.435,449.804 c 0,-3.133 -2.536,-5.668 -5.669,-5.668"
   id="path30"
   inkscape:connector-curvature="0"
   style="fill:none;stroke:#000000" />
			<path
   d="m 140.754,455.446 c 3.133,0.008 5.674,-2.523 5.68,-5.658"
   id="path32"
   inkscape:connector-curvature="0"
   style="fill:none;stroke:#000000" />
			<line
   x1="140.778"
   y1="455.44"
   x2="129.439"
   y2="455.44"
   id="line34"
   style="fill:none;stroke:#000000" />
		</g>
	</g>
	<g
   id="g56">
		<g
   id="g46">
			<path
   d="m 1271.89,61.432 c 0,3.134 2.535,5.669 5.67,5.669"
   id="path40"
   inkscape:connector-curvature="0"
   style="fill:none;stroke:#000000" />
			<path
   d="m 1277.57,55.789 c -3.133,-0.007 -5.674,2.524 -5.68,5.658"
   id="path42"
   inkscape:connector-curvature="0"
   style="fill:none;stroke:#000000" />
			<line
   x1="1277.546"
   y1="55.796001"
   x2="1288.884"
   y2="55.796001"
   id="line44"
   style="fill:none;stroke:#000000" />
		</g>
		<g
   id="g54">
			<path
   d="m 1294.468,61.458 c 0,-3.134 -2.535,-5.669 -5.67,-5.669"
   id="path48"
   inkscape:connector-curvature="0"
   style="fill:none;stroke:#000000" />
			<path
   d="m 1288.789,67.101 c 3.133,0.007 5.674,-2.524 5.68,-5.658"
   id="path50"
   inkscape:connector-curvature="0"
   style="fill:none;stroke:#000000" />
			<line
   x1="1288.812"
   y1="67.094002"
   x2="1277.472"
   y2="67.094002"
   id="line52"
   style="fill:none;stroke:#000000" />
		</g>
	</g>
	<g
   id="g74">
		<g
   id="g64">
			<path
   d="m 123.856,61.432 c 0,3.134 2.536,5.669 5.669,5.669"
   id="path58"
   inkscape:connector-curvature="0"
   style="fill:none;stroke:#000000" />
			<path
   d="m 129.537,55.789 c -3.133,-0.007 -5.674,2.524 -5.68,5.658"
   id="path60"
   inkscape:connector-curvature="0"
   style="fill:none;stroke:#000000" />
			<line
   x1="129.513"
   y1="55.796001"
   x2="140.85201"
   y2="55.796001"
   id="line62"
   style="fill:none;stroke:#000000" />
		</g>
		<g
   id="g72">
			<path
   d="m 146.435,61.458 c 0,-3.134 -2.536,-5.669 -5.669,-5.669"
   id="path66"
   inkscape:connector-curvature="0"
   style="fill:none;stroke:#000000" />
			<path
   d="m 140.754,67.101 c 3.133,0.007 5.674,-2.524 5.68,-5.658"
   id="path68"
   inkscape:connector-curvature="0"
   style="fill:none;stroke:#000000" />
			<line
   x1="140.778"
   y1="67.094002"
   x2="129.439"
   y2="67.094002"
   id="line70"
   style="fill:none;stroke:#000000" />
		</g>
	</g>
	<g
   id="g92">
		<g
   id="g82">
			<path
   d="m 1271.89,449.778 c 0,3.133 2.535,5.668 5.67,5.668"
   id="path76"
   inkscape:connector-curvature="0"
   style="fill:none;stroke:#000000" />
			<path
   d="m 1277.57,444.136 c -3.133,-0.008 -5.674,2.523 -5.68,5.658"
   id="path78"
   inkscape:connector-curvature="0"
   style="fill:none;stroke:#000000" />
			<line
   x1="1277.546"
   y1="444.142"
   x2="1288.884"
   y2="444.142"
   id="line80"
   style="fill:none;stroke:#000000" />
		</g>
		<g
   id="g90">
			<path
   d="m 1294.468,449.804 c 0,-3.133 -2.535,-5.668 -5.67,-5.668"
   id="path84"
   inkscape:connector-curvature="0"
   style="fill:none;stroke:#000000" />
			<path
   d="m 1288.789,455.446 c 3.133,0.008 5.674,-2.523 5.68,-5.658"
   id="path86"
   inkscape:connector-curvature="0"
   style="fill:none;stroke:#000000" />
			<line
   x1="1288.812"
   y1="455.44"
   x2="1277.472"
   y2="455.44"
   id="line88"
   style="fill:none;stroke:#000000" />
		</g>
	</g>
	<g
   id="g110">
		<g
   id="g100">
			<path
   d="m 364.801,61.432 c 0,3.134 2.536,5.669 5.669,5.669"
   id="path94"
   inkscape:connector-curvature="0"
   style="fill:none;stroke:#000000" />
			<path
   d="m 370.481,55.789 c -3.133,-0.007 -5.674,2.524 -5.68,5.658"
   id="path96"
   inkscape:connector-curvature="0"
   style="fill:none;stroke:#000000" />
			<line
   x1="370.45801"
   y1="55.796001"
   x2="381.79599"
   y2="55.796001"
   id="line98"
   style="fill:none;stroke:#000000" />
		</g>
		<g
   id="g108">
			<path
   d="m 387.379,61.458 c 0,-3.134 -2.536,-5.669 -5.669,-5.669"
   id="path102"
   inkscape:connector-curvature="0"
   style="fill:none;stroke:#000000" />
			<path
   d="m 381.699,67.101 c 3.133,0.007 5.674,-2.524 5.68,-5.658"
   id="path104"
   inkscape:connector-curvature="0"
   style="fill:none;stroke:#000000" />
			<line
   x1="381.72299"
   y1="67.094002"
   x2="370.384"
   y2="67.094002"
   id="line106"
   style="fill:none;stroke:#000000" />
		</g>
	</g>
	<g
   id="g128">
		<g
   id="g118">
			<path
   d="m 364.801,449.778 c 0,3.133 2.536,5.668 5.669,5.668"
   id="path112"
   inkscape:connector-curvature="0"
   style="fill:none;stroke:#000000" />
			<path
   d="m 370.481,444.136 c -3.133,-0.008 -5.674,2.523 -5.68,5.658"
   id="path114"
   inkscape:connector-curvature="0"
   style="fill:none;stroke:#000000" />
			<line
   x1="370.45801"
   y1="444.142"
   x2="381.79599"
   y2="444.142"
   id="line116"
   style="fill:none;stroke:#000000" />
		</g>
		<g
   id="g126">
			<path
   d="m 387.379,449.804 c 0,-3.133 -2.536,-5.668 -5.669,-5.668"
   id="path120"
   inkscape:connector-curvature="0"
   style="fill:none;stroke:#000000" />
			<path
   d="m 381.699,455.446 c 3.133,0.008 5.674,-2.523 5.68,-5.658"
   id="path122"
   inkscape:connector-curvature="0"
   style="fill:none;stroke:#000000" />
			<line
   x1="381.72299"
   y1="455.44"
   x2="370.384"
   y2="455.44"
   id="line124"
   style="fill:none;stroke:#000000" />
		</g>
	</g>
	<g
   id="g146">
		<g
   id="g136">
			<path
   d="m 1030.945,61.432 c 0,3.134 2.535,5.669 5.67,5.669"
   id="path130"
   inkscape:connector-curvature="0"
   style="fill:none;stroke:#000000" />
			<path
   d="m 1036.625,55.789 c -3.133,-0.007 -5.674,2.524 -5.68,5.658"
   id="path132"
   inkscape:connector-curvature="0"
   style="fill:none;stroke:#000000" />
			<line
   x1="1036.601"
   y1="55.796001"
   x2="1047.941"
   y2="55.796001"
   id="line134"
   style="fill:none;stroke:#000000" />
		</g>
		<g
   id="g144">
			<path
   d="m 1053.523,61.458 c 0,-3.134 -2.535,-5.669 -5.67,-5.669"
   id="path138"
   inkscape:connector-curvature="0"
   style="fill:none;stroke:#000000" />
			<path
   d="m 1047.843,67.101 c 3.133,0.007 5.674,-2.524 5.68,-5.658"
   id="path140"
   inkscape:connector-curvature="0"
   style="fill:none;stroke:#000000" />
			<line
   x1="1047.8669"
   y1="67.094002"
   x2="1036.5291"
   y2="67.094002"
   id="line142"
   style="fill:none;stroke:#000000" />
		</g>
	</g>
	<g
   id="g164">
		<g
   id="g154">
			<path
   d="m 577.399,61.432 c 0,3.134 2.535,5.669 5.67,5.669"
   id="path148"
   inkscape:connector-curvature="0"
   style="fill:none;stroke:#000000" />
			<path
   d="m 583.079,55.789 c -3.133,-0.007 -5.674,2.524 -5.68,5.658"
   id="path150"
   inkscape:connector-curvature="0"
   style="fill:none;stroke:#000000" />
			<line
   x1="583.05499"
   y1="55.796001"
   x2="594.39502"
   y2="55.796001"
   id="line152"
   style="fill:none;stroke:#000000" />
		</g>
		<g
   id="g162">
			<path
   d="m 599.977,61.458 c 0,-3.134 -2.535,-5.669 -5.67,-5.669"
   id="path156"
   inkscape:connector-curvature="0"
   style="fill:none;stroke:#000000" />
			<path
   d="m 594.297,67.101 c 3.133,0.007 5.674,-2.524 5.68,-5.658"
   id="path158"
   inkscape:connector-curvature="0"
   style="fill:none;stroke:#000000" />
			<line
   x1="594.32098"
   y1="67.094002"
   x2="582.98297"
   y2="67.094002"
   id="line160"
   style="fill:none;stroke:#000000" />
		</g>
	</g>
	<g
   id="g182">
		<g
   id="g172">
			<path
   d="m 577.399,449.778 c 0,3.133 2.535,5.668 5.67,5.668"
   id="path166"
   inkscape:connector-curvature="0"
   style="fill:none;stroke:#000000" />
			<path
   d="m 583.079,444.136 c -3.133,-0.008 -5.674,2.523 -5.68,5.658"
   id="path168"
   inkscape:connector-curvature="0"
   style="fill:none;stroke:#000000" />
			<line
   x1="583.05499"
   y1="444.142"
   x2="594.39502"
   y2="444.142"
   id="line170"
   style="fill:none;stroke:#000000" />
		</g>
		<g
   id="g180">
			<path
   d="m 599.977,449.804 c 0,-3.133 -2.535,-5.668 -5.67,-5.668"
   id="path174"
   inkscape:connector-curvature="0"
   style="fill:none;stroke:#000000" />
			<path
   d="m 594.297,455.446 c 3.133,0.008 5.674,-2.523 5.68,-5.658"
   id="path176"
   inkscape:connector-curvature="0"
   style="fill:none;stroke:#000000" />
			<line
   x1="594.32098"
   y1="455.44"
   x2="582.98297"
   y2="455.44"
   id="line178"
   style="fill:none;stroke:#000000" />
		</g>
	</g>
	<g
   id="g200">
		<g
   id="g190">
			<path
   d="m 818.344,61.432 c 0,3.134 2.535,5.669 5.67,5.669"
   id="path184"
   inkscape:connector-curvature="0"
   style="fill:none;stroke:#000000" />
			<path
   d="m 824.024,55.789 c -3.133,-0.007 -5.674,2.524 -5.68,5.658"
   id="path186"
   inkscape:connector-curvature="0"
   style="fill:none;stroke:#000000" />
			<line
   x1="824"
   y1="55.796001"
   x2="835.34003"
   y2="55.796001"
   id="line188"
   style="fill:none;stroke:#000000" />
		</g>
		<g
   id="g198">
			<path
   d="m 840.922,61.458 c 0,-3.134 -2.535,-5.669 -5.67,-5.669"
   id="path192"
   inkscape:connector-curvature="0"
   style="fill:none;stroke:#000000" />
			<path
   d="m 835.243,67.101 c 3.133,0.007 5.674,-2.524 5.68,-5.658"
   id="path194"
   inkscape:connector-curvature="0"
   style="fill:none;stroke:#000000" />
			<line
   x1="835.26599"
   y1="67.094002"
   x2="823.92798"
   y2="67.094002"
   id="line196"
   style="fill:none;stroke:#000000" />
		</g>
	</g>
	<g
   id="g218">
		<g
   id="g208">
			<path
   d="m 1030.945,449.778 c 0,3.133 2.535,5.668 5.67,5.668"
   id="path202"
   inkscape:connector-curvature="0"
   style="fill:none;stroke:#000000" />
			<path
   d="m 1036.625,444.136 c -3.133,-0.008 -5.674,2.523 -5.68,5.658"
   id="path204"
   inkscape:connector-curvature="0"
   style="fill:none;stroke:#000000" />
			<line
   x1="1036.601"
   y1="444.142"
   x2="1047.941"
   y2="444.142"
   id="line206"
   style="fill:none;stroke:#000000" />
		</g>
		<g
   id="g216">
			<path
   d="m 1053.523,449.804 c 0,-3.133 -2.535,-5.668 -5.67,-5.668"
   id="path210"
   inkscape:connector-curvature="0"
   style="fill:none;stroke:#000000" />
			<path
   d="m 1047.843,455.446 c 3.133,0.008 5.674,-2.523 5.68,-5.658"
   id="path212"
   inkscape:connector-curvature="0"
   style="fill:none;stroke:#000000" />
			<line
   x1="1047.8669"
   y1="455.44"
   x2="1036.5291"
   y2="455.44"
   id="line214"
   style="fill:none;stroke:#000000" />
		</g>
	</g>
	<g
   id="g236">
		<g
   id="g226">
			<path
   d="m 818.344,449.778 c 0,3.133 2.535,5.668 5.67,5.668"
   id="path220"
   inkscape:connector-curvature="0"
   style="fill:none;stroke:#000000" />
			<path
   d="m 824.024,444.136 c -3.133,-0.008 -5.674,2.523 -5.68,5.658"
   id="path222"
   inkscape:connector-curvature="0"
   style="fill:none;stroke:#000000" />
			<line
   x1="824"
   y1="444.142"
   x2="835.34003"
   y2="444.142"
   id="line224"
   style="fill:none;stroke:#000000" />
		</g>
		<g
   id="g234">
			<path
   d="m 840.922,449.804 c 0,-3.133 -2.535,-5.668 -5.67,-5.668"
   id="path228"
   inkscape:connector-curvature="0"
   style="fill:none;stroke:#000000" />
			<path
   d="m 835.243,455.446 c 3.133,0.008 5.674,-2.523 5.68,-5.658"
   id="path230"
   inkscape:connector-curvature="0"
   style="fill:none;stroke:#000000" />
			<line
   x1="835.26599"
   y1="455.44"
   x2="823.92798"
   y2="455.44"
   id="line232"
   style="fill:none;stroke:#000000" />
		</g>
	</g>
</g>
</svg>